<?xml version="1.0" encoding="utf-8"?>
<!-- Generator: Adobe Illustrator 22.0.0, SVG Export Plug-In . SVG Version: 6.00 Build 0)  -->
<svg version="1.1" id="Layer_1" xmlns="http://www.w3.org/2000/svg" xmlns:xlink="http://www.w3.org/1999/xlink" x="0px" y="0px"
	 viewBox="0 0 50 50" style="enable-background:new 0 0 50 50;" xml:space="preserve">
<style type="text/css">
	.st0{fill:#6A8BA4;stroke:#133456;stroke-linecap:round;stroke-linejoin:round;stroke-miterlimit:10;}
	.st1{fill:#133456;stroke:#133456;stroke-miterlimit:10;}
	.st2{fill:#114068;stroke:#133456;stroke-linecap:round;stroke-linejoin:round;stroke-miterlimit:10;}
	.st3{fill:#FFCD05;}
	.st4{fill:#6A8BA4;}
	.st5{fill:#289ED9;}
	.st6{fill:#D9F0F8;}
	.st7{fill:#133456;}
	.st8{fill:#93D1EF;}
</style>
<g>
	<g>
		<g>
			<path class="st0" d="M45.8,12.6v16.9c0,1.2-0.7,2.2-1.7,2.6c-0.3,0.1-0.7,0.2-1.1,0.2H10.7c-1.5,0-2.8-1.2-2.8-2.8V12.6
				c0-1.5,1.2-2.8,2.8-2.8h32.3C44.6,9.8,45.8,11.1,45.8,12.6z"/>
		</g>
		<rect x="8.3" y="13.7" class="st1" width="37.6" height="7.3"/>
		<g>
			<path class="st2" d="M39.2,40.2H7c-1.5,0-2.8-1.3-2.8-2.8V20.5c0-1.5,1.3-2.8,2.8-2.8h32.3c1.5,0,2.8,1.3,2.8,2.8v16.9
				C42,38.9,40.8,40.2,39.2,40.2z"/>
		</g>
		<circle class="st3" cx="37.7" cy="22.3" r="2.1"/>
		<g>
			<path class="st3" d="M10.9,37.8H7.3c-0.5,0-0.9-0.4-0.9-0.9v-1.6c0-0.5,0.4-0.9,0.9-0.9h3.6c0.5,0,0.9,0.4,0.9,0.9v1.6
				C11.8,37.4,11.4,37.8,10.9,37.8z"/>
			<rect x="6.4" y="25.2" class="st4" width="13.1" height="1.2"/>
			<rect x="6.4" y="28.3" class="st5" width="32.9" height="1.2"/>
			<rect x="6.4" y="31.9" class="st4" width="3.5" height="0.8"/>
			<rect x="11.2" y="31.9" class="st4" width="3.5" height="0.8"/>
			<rect x="21" y="25.3" class="st4" width="7.7" height="1.2"/>
		</g>
		<rect x="32.4" y="36.1" class="st4" width="6.9" height="0.9"/>
	</g>
</g>
<g>
	<g>
		<g>
			<g>
				<path class="st6" d="M45.8,12.6v16.9c0,1.2-0.7,2.2-1.7,2.6c-0.3,0.1-0.7,0.2-1.1,0.2H10.7c-1.5,0-2.8-1.2-2.8-2.8V12.6
					c0-1.5,1.2-2.8,2.8-2.8h32.3C44.6,9.8,45.8,11.1,45.8,12.6z"/>
				<path class="st7" d="M43.1,32.8H10.7c-1.8,0-3.3-1.5-3.3-3.3V12.6c0-1.8,1.5-3.3,3.3-3.3h32.3c1.8,0,3.3,1.5,3.3,3.3v16.9
					c0,1.3-0.8,2.5-2,3C43.9,32.7,43.5,32.8,43.1,32.8z M10.7,10.3c-1.3,0-2.3,1-2.3,2.3v16.9c0,1.3,1,2.3,2.3,2.3h32.3
					c0.3,0,0.6-0.1,0.9-0.2c0.9-0.3,1.4-1.2,1.4-2.1V12.6c0-1.3-1-2.3-2.3-2.3H10.7z"/>
			</g>
		</g>
		<g>
			<rect x="8.3" y="13.7" class="st7" width="37.6" height="7.3"/>
			<path class="st7" d="M46.3,21.6H7.8v-8.3h38.6V21.6z M8.8,20.6h36.6v-6.3H8.8V20.6z"/>
		</g>
		<g>
			<g>
				<path class="st8" d="M39.2,40.2H7c-1.5,0-2.8-1.3-2.8-2.8V20.5c0-1.5,1.3-2.8,2.8-2.8h32.3c1.5,0,2.8,1.3,2.8,2.8v16.9
					C42,38.9,40.8,40.2,39.2,40.2z"/>
				<path class="st7" d="M39.2,40.7H7c-1.8,0-3.3-1.5-3.3-3.3V20.5c0-1.8,1.5-3.3,3.3-3.3h32.3c1.8,0,3.3,1.5,3.3,3.3v16.9
					C42.5,39.2,41.1,40.7,39.2,40.7z M7,18.2c-1.3,0-2.3,1-2.3,2.3v16.9c0,1.3,1,2.3,2.3,2.3h32.3c1.3,0,2.3-1,2.3-2.3V20.5
					c0-1.3-1-2.3-2.3-2.3H7z"/>
			</g>
		</g>
		<g>
			<circle class="st3" cx="37.7" cy="22.3" r="2.1"/>
		</g>
		<g>
			<g>
				<path class="st3" d="M10.9,37.8H7.3c-0.5,0-0.9-0.4-0.9-0.9v-1.6c0-0.5,0.4-0.9,0.9-0.9h3.6c0.5,0,0.9,0.4,0.9,0.9v1.6
					C11.8,37.4,11.4,37.8,10.9,37.8z"/>
			</g>
			<g>
				<rect x="6.4" y="25.2" class="st6" width="13.1" height="1.2"/>
			</g>
			<g>
				<rect x="6.4" y="28.3" class="st5" width="32.9" height="1.2"/>
			</g>
			<g>
				<rect x="6.4" y="31.9" class="st6" width="3.5" height="0.8"/>
			</g>
			<g>
				<rect x="11.2" y="31.9" class="st6" width="3.5" height="0.8"/>
			</g>
			<g>
				<rect x="21" y="25.3" class="st6" width="7.7" height="1.2"/>
			</g>
		</g>
		<g>
			<rect x="32.4" y="36.1" class="st6" width="6.9" height="0.9"/>
		</g>
	</g>
</g>
</svg>
